{
    "asset" : {
        "generator" : "Khronos glTF Blender I/O v1.2.75",
        "version" : "2.0"
    },
    "scene" : 0,
    "scenes" : [
        {
            "name" : "Scene",
            "nodes" : [
                0
            ]
        }
    ],
    "nodes" : [
        {
            "mesh" : 0,
            "name" : "LOGO",
            "rotation" : [
                0.6817733645439148,
                0.0514240488409996,
                -0.048147886991500854,
                0.7281637787818909
            ],
            "scale" : [
                56.62509536743164,
                1.0549283027648926,
                54.055416107177734
            ],
            "translation" : [
                -4.59622049331665,
                0,
                0
            ]
        }
    ],
    "materials" : [
        {
            "doubleSided" : true,
            "emissiveFactor" : [
                0,
                0,
                0
            ],
            "name" : "Material",
            "pbrMetallicRoughness" : {
                "baseColorFactor" : [
                    0.12670975923538208,
                    0.09607312083244324,
                    0.07412861287593842,
                    1
                ],
                "metallicFactor" : 0.8772727251052856,
                "roughnessFactor" : 0.2909091114997864
            }
        }
    ],
    "meshes" : [
        {
            "name" : "Curve",
            "primitives" : [
                {
                    "attributes" : {
                        "POSITION" : 0,
                        "NORMAL" : 1,
                        "TEXCOORD_0" : 2
                    },
                    "indices" : 3,
                    "material" : 0
                }
            ]
        }
    ],
    "accessors" : [
        {
            "bufferView" : 0,
            "componentType" : 5126,
            "count" : 5801,
            "max" : [
                0.15066741406917572,
                0.2666047215461731,
                0
            ],
            "min" : [
                0,
                -0.0035233532544225454,
                -0.0381348691880703
            ],
            "type" : "VEC3"
        },
        {
            "bufferView" : 1,
            "componentType" : 5126,
            "count" : 5801,
            "type" : "VEC3"
        },
        {
            "bufferView" : 2,
            "componentType" : 5126,
            "count" : 5801,
            "type" : "VEC2"
        },
        {
            "bufferView" : 3,
            "componentType" : 5123,
            "count" : 10545,
            "type" : "SCALAR"
        }
    ],
    "bufferViews" : [
        {
            "buffer" : 0,
            "byteLength" : 69612,
            "byteOffset" : 0
        },
        {
            "buffer" : 0,
            "byteLength" : 69612,
            "byteOffset" : 69612
        },
        {
            "buffer" : 0,
            "byteLength" : 46408,
            "byteOffset" : 139224
        },
        {
            "buffer" : 0,
            "byteLength" : 21090,
            "byteOffset" : 185632
        }
    ],
    "buffers" : [
        {
            "byteLength" : 206724,
            "uri" : "data:application/octet-stream;base64,"
        }
    ]
}
