<?xml version="1.0" encoding="UTF-8" standalone="no"?>
<svg
   xmlns:dc="http://purl.org/dc/elements/1.1/"
   xmlns:cc="http://creativecommons.org/ns#"
   xmlns:rdf="http://www.w3.org/1999/02/22-rdf-syntax-ns#"
   xmlns:svg="http://www.w3.org/2000/svg"
   xmlns="http://www.w3.org/2000/svg"
   xmlns:sodipodi="http://sodipodi.sourceforge.net/DTD/sodipodi-0.dtd"
   xmlns:inkscape="http://www.inkscape.org/namespaces/inkscape"
   id="logoipsum"
   viewBox="0 0 175 35"
   version="1.1"
   sodipodi:docname="logo.svg"
   width="175"
   height="35"
   inkscape:version="0.92.4 (5da689c313, 2019-01-14)">
  <metadata
     id="metadata27">
    <rdf:RDF>
      <cc:Work
         rdf:about="">
        <dc:format>image/svg+xml</dc:format>
        <dc:type
           rdf:resource="http://purl.org/dc/dcmitype/StillImage" />
        <dc:title></dc:title>
      </cc:Work>
    </rdf:RDF>
  </metadata>
  <defs
     id="defs25" />
  <sodipodi:namedview
     pagecolor="#ffffff"
     bordercolor="#666666"
     borderopacity="1"
     objecttolerance="10"
     gridtolerance="10"
     guidetolerance="10"
     inkscape:pageopacity="0"
     inkscape:pageshadow="2"
     inkscape:window-width="2560"
     inkscape:window-height="1377"
     id="namedview23"
     showgrid="false"
     inkscape:zoom="6.0616653"
     inkscape:cx="139.89436"
     inkscape:cy="18.184795"
     inkscape:window-x="1358"
     inkscape:window-y="-8"
     inkscape:window-maximized="1"
     inkscape:current-layer="logoipsum" />
  <path
     d="M 25.108848,28.959908 1.6890131,12.804922 C -0.68430059,11.167883 0.1224696,7.7593444 3.0819324,6.9577954 L 27.973013,0.20207425 A 3.5247243,3.5247243 0 0 1 32.693532,3.4552644 L 31.218369,26.364667 c -0.17493,2.719259 -3.736206,4.23228 -6.109521,2.595241 z"
     id="path2"
     inkscape:connector-curvature="0"
     style="fill:#e9327c;stroke-width:1.30545342" />
  <path
     d="M 17.680818,32.948068 3.8834807,5.9656524 A 3.7636223,3.7636223 0 0 1 7.808979,0.53365915 L 33.378895,4.4800454 a 3.7636223,3.7636223 0 0 1 2.7767,5.433297 L 24.376488,32.949374 a 3.7636223,3.7636223 0 0 1 -6.69567,-0.0012 z"
     id="path4"
     inkscape:connector-curvature="0"
     style="fill:#1dace3;stroke-width:1.30545342" />
  <path
     d="M 32.630871,4.3638594 19.884424,2.3965424 4.2346479,6.6457924 10.481242,18.866142 25.108848,28.959908 a 3.7701496,3.7701496 0 0 0 1.052195,0.499989 l 5.55601,-10.865289 z"
     id="path6"
     inkscape:connector-curvature="0"
     style="fill:#001a49;stroke-width:1.30545342" />
  <path
     d="m 97.194685,7.5178354 a 2.395507,2.395507 0 1 1 2.395498,2.395507 2.4203107,2.4203107 0 0 1 -2.395498,-2.395507 z m 0.399459,3.5664986 h 3.993376 v 13.307793 h -3.993376 z"
     id="path8"
     inkscape:connector-curvature="0"
     style="fill:#001a49;stroke-width:1.30545342" />
  <path
     d="m 118.83256,17.73823 a 6.6826162,6.6826162 0 0 1 -6.36016,7.027255 4.9985813,4.9985813 0 0 1 -3.96598,-1.623983 v 6.574263 h -3.99208 V 11.084334 h 3.99208 v 1.250624 a 4.9985813,4.9985813 0 0 1 3.96598,-1.622677 6.6813107,6.6813107 0 0 1 6.36016,7.025949 z m -3.99208,0 a 3.1683355,3.1683355 0 1 0 -3.16703,3.247969 3.0377901,3.0377901 0 0 0 3.16703,-3.247969 z"
     id="path10"
     inkscape:connector-curvature="0"
     style="fill:#001a49;stroke-width:1.30545342" />
  <path
     d="m 131.15475,20.397439 c 0,3.061289 -2.66183,4.365435 -5.53643,4.365435 a 5.8262386,5.8262386 0 0 1 -5.72181,-3.168335 l 3.45946,-1.968623 a 2.1866345,2.1866345 0 0 0 2.26235,1.566543 c 0.95819,0 1.43599,-0.293726 1.43599,-0.825046 0,-1.464719 -6.54685,-0.69189 -6.54685,-5.29753 0,-2.900717 2.44772,-4.364131 5.22182,-4.364131 a 5.8223224,5.8223224 0 0 1 5.18918,2.847194 l -3.40594,1.836774 a 1.9333765,1.9333765 0 0 0 -1.78324,-1.174909 c -0.69189,0 -1.11748,0.261091 -1.11748,0.745415 -0.003,1.52738 6.54295,0.515654 6.54295,5.437213 z"
     id="path12"
     inkscape:connector-curvature="0"
     style="fill:#001a49;stroke-width:1.30545342" />
  <path
     d="m 145.74579,11.084334 v 13.307793 h -3.99207 v -1.253236 a 4.554727,4.554727 0 0 1 -3.80671,1.623983 c -2.68793,0 -4.97639,-1.916405 -4.97639,-5.510317 v -8.168223 h 3.99208 v 7.58599 a 2.1944672,2.1944672 0 0 0 2.31587,2.421616 c 1.46342,0 2.48037,-0.851155 2.48037,-2.741453 v -7.266153 z"
     id="path14"
     inkscape:connector-curvature="0"
     style="fill:#001a49;stroke-width:1.30545342" />
  <path
     d="m 168.62777,16.219987 v 8.17214 h -3.99207 v -7.824889 c 0,-1.330257 -0.63967,-2.182718 -1.9164,-2.182718 -1.33156,0 -2.07568,0.932094 -2.07568,2.502555 v 7.505052 h -3.99337 v -7.824889 c 0,-1.330257 -0.63837,-2.182718 -1.91641,-2.182718 -1.33026,0 -2.07567,0.932094 -2.07567,2.502555 v 7.505052 h -3.99208 V 11.084334 h 3.9986 v 1.219293 a 4.0847638,4.0847638 0 0 1 3.56651,-1.596568 3.9607458,3.9607458 0 0 1 3.48686,1.755834 4.3850181,4.3850181 0 0 1 3.86022,-1.755834 c 3.05476,0.0052 5.04949,2.186634 5.04949,5.512928 z"
     id="path16"
     inkscape:connector-curvature="0"
     style="fill:#001a49;stroke-width:1.30545342" />
  <circle
     cx="172.01021"
     cy="8.0387144"
     id="circle18"
     r="2.9633794"
     style="fill:#001a49;stroke-width:1.30545342" />
  <path
     d="m 42.689389,4.9630624 h 3.993383 V 24.392127 H 42.689389 Z M 48.943817,17.73823 a 7.0494485,7.0494485 0 1 1 7.049449,7.027255 6.9750378,6.9750378 0 0 1 -7.049449,-7.027255 z m 10.114654,0 a 3.0612883,3.0612883 0 1 0 -3.061289,3.140921 2.985572,2.985572 0 0 0 3.06651,-3.140921 z M 78.96533,11.080418 v 12.643316 c 0,4.471178 -3.486867,6.360169 -7.025951,6.360169 a 6.8040233,6.8040233 0 0 1 -6.30795,-3.220553 l 3.405928,-1.96993 a 3.0430119,3.0430119 0 0 0 3.035178,1.677509 2.6526813,2.6526813 0 0 0 3.002544,-2.847195 v -1.224515 a 4.7283524,4.7283524 0 0 1 -3.886336,1.729726 6.7635542,6.7635542 0 0 1 0,-13.520581 4.7283524,4.7283524 0 0 1 3.886336,1.729725 v -1.357671 z m -3.885029,6.387584 a 3.22447,3.22447 0 1 0 -3.223165,3.092618 3.0129865,3.0129865 0 0 0 3.223165,-3.088702 z m 6.146074,0.26109 a 7.0494485,7.0494485 0 1 1 7.049449,7.027256 6.9750378,6.9750378 0 0 1 -7.049449,-7.018118 z m 10.114653,0 a 3.0625938,3.0625938 0 1 0 -3.061288,3.140922 2.985572,2.985572 0 0 0 3.061288,-3.131784 z"
     id="path20"
     inkscape:connector-curvature="0"
     style="fill:#001a49;stroke-width:1.30545342" />
</svg>
